<svg width="116" height="73" viewBox="0 0 116 73" fill="none" xmlns="http://www.w3.org/2000/svg">
<g id="Layer_1" clip-path="url(#clip0_8043_2951)">
<g id="Group">
<path id="Vector" d="M56.2603 6.96313V25.5346L52.7806 24.59V6.96313H43.6738V30.5574L59.7381 27.0748V10.4456L63.2179 11.3827V27.0748V28.0384L72.3246 30.5574V6.96313H56.2603Z" fill="black"/>
<path id="Vector_2" d="M72.3246 0H43.6738V3.48251H72.3246V0Z" fill="black"/>
</g>
<g id="Group_2">
<path id="Vector_3" d="M28.1426 69.5291V68.7988H35.9435V69.5291H28.1426ZM34.922 70.2499V73.0002H34.0482V70.9706H29.0428V70.2499H34.9201H34.922ZM29.962 66.608V67.3572H34.958V68.0685H29.0883V64.4741H34.9201V65.1949H29.962V65.9157H34.7249V66.608H29.962Z" fill="black"/>
<path id="Vector_4" d="M36.3613 66.9588V66.238H41.3383V66.9588H36.3613ZM38.8782 71.1602C37.652 71.1602 36.8351 70.3731 36.8351 69.3109C36.8351 68.2486 37.652 67.452 38.8782 67.452C40.1045 67.452 40.9213 68.2581 40.9213 69.3109C40.9213 70.3636 40.1045 71.1602 38.8782 71.1602ZM37.5781 65.4414V64.7111H40.15V65.4414H37.5781ZM38.8782 68.1917C38.2092 68.1917 37.7089 68.6565 37.7089 69.3109C37.7089 69.9652 38.2111 70.4205 38.8782 70.4205C39.5833 70.4205 40.0476 69.9652 40.0476 69.3109C40.0476 68.6565 39.5454 68.1917 38.8782 68.1917ZM41.2 68.6754V67.9262H42.6669V64.1421H43.5406V72.9622H42.6669V68.6754H41.2Z" fill="black"/>
<path id="Vector_5" d="M45.0254 68.7228V64.6447H45.8991V65.944H48.1659V64.6353H49.0396V68.7228H45.0273H45.0254ZM48.164 66.6648H45.8972V67.9926H48.164V66.6648ZM46.1948 72.8484V69.3962H47.0761V70.4015H50.8837V69.3678H51.765V72.8484H46.1929H46.1948ZM50.8856 71.1033H47.078V72.1276H50.8856V71.1033ZM49.4831 66.9114V66.1622H50.8856V64.1421H51.7593V68.941H50.8856V66.9114H49.4831Z" fill="black"/>
<path id="Vector_6" d="M57.7481 66.9304C57.7481 68.2012 56.7739 69.0832 55.4453 69.0832C54.1167 69.0832 53.1426 68.2012 53.1426 66.9399C53.1426 65.6785 54.1167 64.7396 55.4453 64.7396C56.7739 64.7396 57.7481 65.669 57.7481 66.9304ZM54.0618 66.9209C54.0618 67.7365 54.6285 68.334 55.4453 68.334C56.2622 68.334 56.8289 67.746 56.8289 66.9304C56.8289 66.1148 56.2906 65.4983 55.4453 65.4983C54.6 65.4983 54.0618 66.1053 54.0618 66.9209ZM54.3499 72.6871V69.9368H55.2236V71.9664H60.229V72.6871H54.3518H54.3499ZM59.1506 70.5438V64.1421H60.0243V70.5438H59.1506Z" fill="black"/>
<path id="Vector_7" d="M64.6843 68.2392V70.0601C65.7703 70.0791 66.7274 70.0221 67.4609 69.842L67.5632 70.5532C66.6895 70.7524 65.7608 70.8188 63.8125 70.8093V65.1948H67.0989V65.9251H64.6843V67.5279H66.68V68.2392H64.6843ZM67.2202 68.2486V67.5184H68.3062V64.3318H69.142V72.5259H68.3062V68.2486H67.2202ZM69.9778 72.9622V64.1421H70.8231V72.9622H69.9778Z" fill="black"/>
<path id="Vector_8" d="M71.7617 66.9873V66.2665H75.9503V66.9873H71.7617ZM73.8977 71.0085C72.8022 71.0085 72.0593 70.2687 72.0593 69.2729C72.0593 68.2012 72.8022 67.5373 73.8977 67.5373C74.9932 67.5373 75.7266 68.2202 75.7266 69.2729C75.7266 70.3256 75.0026 71.0085 73.8977 71.0085ZM72.7378 65.5742V64.8344H75.0121V65.5742H72.7378ZM73.8977 68.2676C73.2855 68.2676 72.8761 68.6944 72.8761 69.2729C72.8761 69.8514 73.2855 70.2687 73.8977 70.2687C74.5099 70.2687 74.9192 69.842 74.9192 69.2729C74.9192 68.7039 74.5004 68.2676 73.8977 68.2676ZM76.6743 72.5259V68.4099H75.7266V67.6796H76.6743V64.3413H77.5006V72.5259H76.6743ZM78.2435 72.9622V64.1421H79.0888V72.9622H78.2435Z" fill="black"/>
<path id="Vector_9" d="M85.1904 69.1591C84.3546 69.3203 82.8308 69.4436 81.633 69.4436H80.3878V66.6459H83.4145V65.4414H80.3594V64.7111H84.2864V67.3477H81.2596V68.7323C82.9767 68.7323 84.1101 68.6659 85.0767 68.4478L85.1885 69.1591H85.1904ZM81.2824 72.7441V70.2023H82.1561V72.0138H87.0497V72.7441H81.2824ZM86.7237 66.7881H88.0238V67.5279H86.7237V70.5438H85.8594V64.1421H86.7237V66.7881Z" fill="black"/>
</g>
<g id="Group_3">
<path id="Vector_10" d="M6.48751 42.9017V55.8492H4.92202V42.9017H0L0.483294 41.4734H11.4114L10.9281 42.9017H6.48751Z" fill="black"/>
<path id="Vector_11" d="M27.2392 54.4209L26.756 55.8492H18.4414V41.4146H27.2392L26.756 42.8428H20.0069V47.968H25.9732L25.4899 49.3754H20.005V54.4209H27.2374H27.2392Z" fill="black"/>
<path id="Vector_12" d="M43.9311 41.7749L45.5004 41.2932V55.8473H43.9311V49.4342H35.4346V55.8473H33.8691V41.773L35.4346 41.2913V48.0059H43.9311V41.773V41.7749Z" fill="black"/>
<path id="Vector_13" d="M62.3291 54.4209L61.8458 55.8492H53.5312V41.4146H62.3291L61.8458 42.8428H55.0967V47.968H61.0612L60.5817 49.3754H55.0967V54.4209H62.3291Z" fill="black"/>
<path id="Vector_14" d="M75.2077 49.3337C77.0139 48.9524 78.3387 47.9263 78.3387 45.4946C78.3387 42.2188 75.9298 41.4734 73.1968 41.4734H68.959V55.8473H70.5453V49.5139H73.5398L77.7834 55.8473H79.6161L75.2096 49.3337H75.2077ZM73.1968 48.0875H70.5434V42.9017H73.1968C75.1451 42.9017 76.7315 43.465 76.7315 45.4946C76.7315 47.5242 75.1451 48.0875 73.1968 48.0875Z" fill="black"/>
<path id="Vector_15" d="M94.1258 52.6512H87.6572L86.3116 55.8492H84.7461L90.8925 41.2534L97.0388 55.8492H95.4733L94.1277 52.6512H94.1258ZM90.8906 44.9522L88.2599 51.2249H93.542L90.8906 44.9522Z" fill="black"/>
<path id="Vector_16" d="M105.435 45.0716V55.8473H103.869V41.2515L114.433 52.3287V41.8148L115.999 41.3311V56.0673L105.433 45.0716H105.435Z" fill="black"/>
</g>
</g>
<defs>
<clipPath id="clip0_8043_2951">
<rect width="116" height="73" fill="white"/>
</clipPath>
</defs>
</svg>
