<svg width="46" height="46" viewBox="0 0 46 46" fill="none" xmlns="http://www.w3.org/2000/svg">
<g id="ep:arrow-up">
<path id="Vector" d="M15.4694 24.0407L31.4917 39.307C31.7591 39.5618 32.1142 39.704 32.4836 39.704C32.853 39.704 33.2081 39.5618 33.4755 39.307L33.4927 39.2897C33.6228 39.1662 33.7263 39.0174 33.7971 38.8526C33.8679 38.6878 33.9044 38.5103 33.9044 38.3309C33.9044 38.1515 33.8679 37.974 33.7971 37.8092C33.7263 37.6443 33.6228 37.4956 33.4927 37.3721L18.4047 22.9971L33.4927 8.62783C33.6228 8.50428 33.7263 8.35557 33.7971 8.19073C33.8679 8.0259 33.9044 7.8484 33.9044 7.66901C33.9044 7.48964 33.8679 7.31213 33.7971 7.1473C33.7263 6.98246 33.6228 6.83375 33.4927 6.7102L33.4755 6.69295C33.2081 6.4381 32.853 6.29593 32.4836 6.29593C32.1142 6.29593 31.7591 6.4381 31.4917 6.69295L15.4694 21.9592C15.3284 22.0935 15.2163 22.2549 15.1396 22.4338C15.063 22.6127 15.0234 22.8053 15.0234 23C15.0234 23.1946 15.063 23.3872 15.1396 23.5661C15.2163 23.745 15.3284 23.9065 15.4694 24.0407Z" fill="#353535"/>
</g>
</svg>
