<svg width="46" height="46" viewBox="0 0 46 46" fill="none" xmlns="http://www.w3.org/2000/svg">
<g id="ep:arrow-up">
<path id="Vector" d="M30.5306 21.9593L14.5083 6.69304C14.2409 6.43819 13.8858 6.29602 13.5164 6.29602C13.147 6.29602 12.7919 6.43819 12.5245 6.69304L12.5073 6.71029C12.3772 6.83384 12.2737 6.98256 12.2029 7.14739C12.1321 7.31222 12.0956 7.48973 12.0956 7.66911C12.0956 7.84849 12.1321 8.02599 12.2029 8.19082C12.2737 8.35566 12.3772 8.50437 12.5073 8.62792L27.5953 23.0029L12.5073 37.3722C12.3772 37.4957 12.2737 37.6444 12.2029 37.8093C12.1321 37.9741 12.0956 38.1516 12.0956 38.331C12.0956 38.5104 12.1321 38.6879 12.2029 38.8527C12.2737 39.0175 12.3772 39.1662 12.5073 39.2898L12.5245 39.307C12.7919 39.5619 13.147 39.7041 13.5164 39.7041C13.8858 39.7041 14.2409 39.5619 14.5083 39.307L30.5306 24.0408C30.6716 23.9065 30.7837 23.7451 30.8604 23.5662C30.937 23.3873 30.9766 23.1947 30.9766 23C30.9766 22.8054 30.937 22.6128 30.8604 22.4339C30.7837 22.255 30.6716 22.0935 30.5306 21.9593Z" fill="#353535"/>
</g>
</svg>
