<svg width="58" height="38" viewBox="0 0 58 38" fill="none" xmlns="http://www.w3.org/2000/svg">
<g id="Layer_1" clip-path="url(#clip0_8043_1935)">
<g id="Group">
<path id="Vector" d="M28.1311 3.62464V13.292L26.3913 12.8003V3.62464H21.8379V15.9066L29.87 14.0938V5.43746L31.6099 5.92522V14.0938V14.5953L36.1633 15.9066V3.62464H28.1311Z" fill="white"/>
<path id="Vector_2" d="M36.1633 0H21.8379V1.81282H36.1633V0Z" fill="white"/>
</g>
<g id="Group_2">
<path id="Vector_3" d="M14.0723 36.1931V35.813H17.9727V36.1931H14.0723ZM17.462 36.5683V38H17.0251V36.9435H14.5224V36.5683H17.461H17.462ZM14.982 34.6726V35.0626H17.48V35.4328H14.5451V33.5618H17.461V33.937H14.982V34.3122H17.3634V34.6726H14.982Z" fill="white"/>
<path id="Vector_4" d="M18.1816 34.8552V34.48H20.6701V34.8552H18.1816ZM19.4401 37.0423C18.827 37.0423 18.4185 36.6325 18.4185 36.0796C18.4185 35.5266 18.827 35.1119 19.4401 35.1119C20.0532 35.1119 20.4617 35.5316 20.4617 36.0796C20.4617 36.6276 20.0532 37.0423 19.4401 37.0423ZM18.79 34.0653V33.6852H20.076V34.0653H18.79ZM19.4401 35.497C19.1056 35.497 18.8554 35.7389 18.8554 36.0796C18.8554 36.4202 19.1065 36.6572 19.4401 36.6572C19.7926 36.6572 20.0248 36.4202 20.0248 36.0796C20.0248 35.7389 19.7737 35.497 19.4401 35.497ZM20.601 35.7488V35.3588H21.3344V33.389H21.7713V37.9803H21.3344V35.7488H20.601Z" fill="white"/>
<path id="Vector_5" d="M22.5137 35.7735V33.6506H22.9505V34.327H24.0839V33.6457H24.5208V35.7735H22.5146H22.5137ZM24.083 34.7022H22.9496V35.3933H24.083V34.7022ZM23.0984 37.921V36.124H23.539V36.6473H25.4428V36.1092H25.8835V37.921H23.0974H23.0984ZM25.4438 37.0126H23.54V37.5458H25.4438V37.0126ZM24.7425 34.8305V34.4405H25.4438V33.389H25.8806V35.887H25.4438V34.8305H24.7425Z" fill="white"/>
<path id="Vector_6" d="M28.875 34.8404C28.875 35.5019 28.3879 35.9611 27.7236 35.9611C27.0593 35.9611 26.5723 35.502 26.5723 34.8453C26.5723 34.1887 27.0593 33.7 27.7236 33.7C28.3879 33.7 28.875 34.1838 28.875 34.8404ZM27.0319 34.8355C27.0319 35.26 27.3152 35.5711 27.7236 35.5711C28.1321 35.5711 28.4154 35.265 28.4154 34.8404C28.4154 34.4158 28.1463 34.0949 27.7236 34.0949C27.301 34.0949 27.0319 34.4109 27.0319 34.8355ZM27.1759 37.8371V36.4054H27.6128V37.4619H30.1155V37.8371H27.1769H27.1759ZM29.5763 36.7214V33.389H30.0131V36.7214H29.5763Z" fill="white"/>
<path id="Vector_7" d="M32.3441 35.5217V36.4696C32.8871 36.4794 33.3657 36.4498 33.7324 36.356L33.7836 36.7263C33.3467 36.83 32.8824 36.8645 31.9082 36.8596V33.937H33.5514V34.3171H32.3441V35.1514H33.342V35.5217H32.3441ZM33.612 35.5266V35.1465H34.155V33.4877H34.573V37.7532H34.155V35.5266H33.612ZM34.9909 37.9803V33.389H35.4135V37.9803H34.9909Z" fill="white"/>
<path id="Vector_8" d="M35.8828 34.87V34.4948H37.9771V34.87H35.8828ZM36.9508 36.9633C36.4031 36.9633 36.0316 36.5782 36.0316 36.0598C36.0316 35.502 36.4031 35.1564 36.9508 35.1564C37.4985 35.1564 37.8653 35.5118 37.8653 36.0598C37.8653 36.6078 37.5033 36.9633 36.9508 36.9633ZM36.3708 34.1344V33.7494H37.508V34.1344H36.3708ZM36.9508 35.5365C36.6447 35.5365 36.44 35.7587 36.44 36.0598C36.44 36.361 36.6447 36.5782 36.9508 36.5782C37.2569 36.5782 37.4616 36.356 37.4616 36.0598C37.4616 35.7636 37.2521 35.5365 36.9508 35.5365ZM38.3391 37.7532V35.6106H37.8653V35.2304H38.3391V33.4926H38.7523V37.7532H38.3391ZM39.1237 37.9803V33.389H39.5464V37.9803H39.1237Z" fill="white"/>
<path id="Vector_9" d="M42.5952 36.0006C42.1773 36.0845 41.4154 36.1487 40.8165 36.1487H40.1939V34.6923H41.7073V34.0653H40.1797V33.6852H42.1432V35.0576H40.6298V35.7784C41.4884 35.7784 42.0551 35.7439 42.5384 35.6303L42.5943 36.0006H42.5952ZM40.6412 37.8667V36.5436H41.078V37.4866H43.5248V37.8667H40.6412ZM43.3618 34.7664H44.0119V35.1514H43.3618V36.7214H42.9297V33.389H43.3618V34.7664Z" fill="white"/>
</g>
<g id="Group_3">
<path id="Vector_10" d="M3.24375 22.3324V29.0722H2.46101V22.3324H0L0.241647 21.5889H5.70571L5.46406 22.3324H3.24375Z" fill="white"/>
<path id="Vector_11" d="M13.6196 28.3287L13.378 29.0722H9.2207V21.5583H13.6196L13.378 22.3018H10.0034V24.9697H12.9866L12.745 25.7023H10.0025V28.3287H13.6187H13.6196Z" fill="white"/>
<path id="Vector_12" d="M21.9646 21.7459L22.7492 21.4951V29.0712H21.9646V25.7329H17.7163V29.0712H16.9336V21.7449L17.7163 21.4941V24.9894H21.9646V21.7449V21.7459Z" fill="white"/>
<path id="Vector_13" d="M31.1645 28.3287L30.9229 29.0722H26.7656V21.5583H31.1645L30.9229 22.3018H27.5484V24.9697H30.5306L30.2908 25.7023H27.5484V28.3287H31.1645Z" fill="white"/>
<path id="Vector_14" d="M37.6048 25.6806C38.5079 25.4821 39.1703 24.9479 39.1703 23.6821C39.1703 21.9769 37.9659 21.5889 36.5994 21.5889H34.4805V29.0712H35.2736V25.7744H36.7709L38.8927 29.0712H39.809L37.6058 25.6806H37.6048ZM36.5994 25.0319H35.2727V22.3324H36.5994C37.5735 22.3324 38.3667 22.6256 38.3667 23.6821C38.3667 24.7386 37.5735 25.0319 36.5994 25.0319Z" fill="white"/>
<path id="Vector_15" d="M47.0629 27.4074H43.8286L43.1558 29.0722H42.373L45.4462 21.4743L48.5194 29.0722H47.7367L47.0638 27.4074H47.0629ZM45.4453 23.3997L44.13 26.6649H46.771L45.4453 23.3997Z" fill="white"/>
<path id="Vector_16" d="M52.7163 23.4619V29.0712H51.9336V21.4734L57.2157 27.2396V21.7666L57.9985 21.5148V29.1857L52.7154 23.4619H52.7163Z" fill="white"/>
</g>
</g>
<defs>
<clipPath id="clip0_8043_1935">
<rect width="58" height="38" fill="white"/>
</clipPath>
</defs>
</svg>
